<svg width="216" height="216" viewBox="0 0 216 216" fill="none" xmlns="http://www.w3.org/2000/svg">
<path fill-rule="evenodd" clip-rule="evenodd" d="M106.57 213.602C150.704 213.602 186.482 177.855 186.482 133.76C186.482 89.6644 150.704 53.918 106.57 53.918C62.4355 53.918 26.6576 89.6644 26.6576 133.76C26.6576 177.855 62.4355 213.602 106.57 213.602Z" fill="#69A297"/>
<mask id="mask0_20_201" style="mask-type:luminance" maskUnits="userSpaceOnUse" x="0" y="16" width="216" height="200">
<path fill-rule="evenodd" clip-rule="evenodd" d="M106.57 213.602C143.192 213.602 174.061 188.988 183.508 155.414C185.445 148.528 215.493 125.823 215.493 118.318C215.493 74.2228 150.704 16 106.57 16C62.4355 16 -29.5182 194.633 9.36682 213.602C32.5918 224.931 47.8273 188.061 50.9248 191.064C65.3129 205.014 84.9375 213.602 106.57 213.602Z" fill="white"/>
</mask>
<g mask="url(#mask0_20_201)">
<path fill-rule="evenodd" clip-rule="evenodd" d="M136.361 76.6607C128.583 79.4127 96.7998 65.7429 96.5026 42.2329C96.2053 18.723 128.24 21.3094 135.345 32.6127C142.45 43.9161 144.14 73.9087 136.361 76.6607Z" fill="#B28B67"/>
<path fill-rule="evenodd" clip-rule="evenodd" d="M118.022 43.0918C119.952 39.5364 121.859 36.7894 124.49 35.071C135.703 34.3475 136.847 32.1748 136.284 25.2096C134.368 24.0236 127.804 22.2964 120.606 22.2433C116.873 21.4642 112.57 22.0155 108.554 24.1436C103.539 26.0591 99.4516 29.6415 98.0197 35.8452C92.068 48.7539 98.3827 61.1796 105.847 64.9951C107.553 62.5343 109.023 60.1642 110.323 57.9041C109.044 56.8095 108.174 55.2077 108.026 53.3698C107.733 49.7494 110.347 46.5839 113.864 46.2994C114.122 46.2785 114.379 46.2738 114.632 46.2844C115.156 50.798 117.046 66.0595 119.187 71.2405C121.711 77.3488 133.605 77.9368 137.71 77.6048C141.255 77.318 140.855 73.8719 140.568 71.4021C140.527 71.0464 140.488 70.7109 140.463 70.4081C140.412 69.7754 139.613 69.8417 138.71 69.9166C137.537 70.0138 136.189 70.1256 136.077 68.7403C135.955 67.2302 137.888 65.908 139.619 64.7248C140.698 63.9866 141.699 63.3025 142.071 62.6607C143.247 60.636 143.486 58.014 141.478 58.1764C140.381 58.2651 138.928 59.038 137.181 59.9678C134.542 61.3715 131.231 63.133 127.456 63.4383C121.22 63.9426 118.061 43.3494 118.022 43.0918Z" fill="#191847"/>
<path fill-rule="evenodd" clip-rule="evenodd" d="M81.8843 98.8748L108.577 55.9956L115.815 58.5897L105.771 107.435L81.8843 98.8748Z" fill="#B28B67"/>
<path fill-rule="evenodd" clip-rule="evenodd" d="M77.2898 159.826C78.7165 179.28 170.623 236.556 171.159 238.163C171.517 239.235 142.552 305.896 142.552 305.896L150.586 309.015C150.586 309.015 195.013 238.416 192.731 230.893C189.464 220.123 121.422 160.033 121.422 160.033L77.2898 159.826Z" fill="#B28B67"/>
<path fill-rule="evenodd" clip-rule="evenodd" d="M144.666 295.859L157.783 300.63C185.442 269.45 196.283 243.724 194.306 230.616C192.33 217.508 123.243 159.874 123.243 159.874L76.3492 159.874C77.9492 204.927 163.135 238.335 164.274 240.255C165.414 242.175 154.201 260.978 144.666 295.859Z" fill="#2F3676"/>
<path fill-rule="evenodd" clip-rule="evenodd" d="M87.8572 159.826L46.9153 258.029L6.67581 341.052H16.1696L120.039 159.826H87.8572Z" fill="#997659"/>
<path fill-rule="evenodd" clip-rule="evenodd" d="M10.3096 323.805L31.4049 327.757C47.7158 303.798 115.977 205.559 123.462 159.826H76.4986C51.505 192.886 25.8572 299.45 10.3096 323.805Z" fill="#5C63AB"/>
<path fill-rule="evenodd" clip-rule="evenodd" d="M187.735 125.6L159.066 138.18L168.22 149.897L189.692 133.449C200.416 131.481 205.39 129.79 204.613 128.377C203.958 127.185 202.738 127.118 201.615 127.056C200.74 127.008 199.924 126.963 199.478 126.392C198.459 125.088 200.973 121.06 203.522 117.34C206.072 113.62 203.682 113.755 202.284 114.199C197.607 116.8 192.757 120.6 187.735 125.6ZM59.3736 144.859L43.1604 141.645C32.1646 170.601 25.6092 186.468 23.4941 189.248C21.9431 191.286 12.3779 196.536 5.90358 199.339C3.30488 200.465 3.86284 202.659 4.62503 203.361C9.43271 207.788 13.9022 206.236 18.7675 204.547C20.176 204.058 21.6176 203.557 23.1103 203.187C26.9737 202.228 28.1494 204.213 29.2605 206.089C30.2442 207.75 31.1773 209.326 33.8803 208.697C33.7574 208.167 33.6063 207.573 33.4433 206.932C32.3896 202.79 30.8356 196.68 33.1411 193.131C34.3243 191.309 43.0684 175.219 59.3736 144.859Z" fill="#915B3C"/>
<path fill-rule="evenodd" clip-rule="evenodd" d="M103.44 81.0373L110.282 79.8649C125.183 94.3076 131.265 129.006 141.196 133.599C150.585 137.941 163.895 133.739 179.716 128.065L184.561 138.881C170.186 154.42 139.562 167.547 127.149 160.053C107.302 148.071 102.721 105.276 103.44 81.0373Z" fill="#373F51"/>
<path fill-rule="evenodd" clip-rule="evenodd" d="M73.6154 166.941C73.6154 166.941 114.764 166.941 134.152 166.941C136.918 166.941 136.397 162.95 135.997 160.936C131.382 137.695 113.367 112.642 113.367 79.558L95.9051 76.8223C81.4622 100.03 76.4675 128.605 73.6154 166.941Z" fill="#FCFCFC"/>
<path fill-rule="evenodd" clip-rule="evenodd" d="M94.978 76.8223H94.7787C55.6127 100.936 31.9429 138.317 23.7692 188.964L36.4582 191.447C44.8636 181.663 55.2367 165.651 67.5775 143.41C63.7912 156.807 61.027 170.548 60.1648 183.542H114.657C125.206 156.906 101.693 76.8223 101.693 76.8223H97.9304H94.978Z" fill="#373F51"/>
</g>
<path fill-rule="evenodd" clip-rule="evenodd" d="M201.591 9.89029C202.721 10.5827 203.739 11.4567 204.607 12.48C205.463 13.4845 206.15 14.6325 206.639 15.8756C206.913 16.5797 207.131 17.3062 207.289 18.0477C207.649 19.7338 207.678 21.4781 207.374 23.1759C207.206 24.0913 206.952 24.987 206.615 25.8499L206.576 25.9415C205.873 27.773 204.614 29.5458 203.412 31.2967C202.8 32.1832 202.192 33.0586 201.683 33.9085C201.522 34.1728 201.296 34.3868 201.028 34.5274C200.76 34.6681 200.46 34.7302 200.16 34.707L190.486 36.2051C190.087 36.2656 189.681 36.172 189.344 35.942C189.006 35.7119 188.761 35.3613 188.655 34.9561C188.414 34.2239 188.117 33.5133 187.766 32.8315C187.474 32.2453 187.12 31.6949 186.711 31.1905C186.212 30.5971 185.702 29.9891 185.196 29.3041C184.631 28.5116 184.144 27.6625 183.741 26.7693C183.317 25.8304 182.987 24.8484 182.756 23.8389C182.528 22.8284 182.415 21.793 182.422 20.7547C182.433 19.6752 182.571 18.6011 182.834 17.5569C183.114 16.4362 183.517 15.3523 184.032 14.3262L184.103 14.1943C184.767 13.0043 185.611 11.9333 186.602 11.0222C187.586 10.126 188.706 9.40678 189.917 8.89396L190.019 8.85367C190.924 8.47904 191.867 8.21715 192.831 8.07345C193.85 7.92438 194.882 7.8998 195.907 8.00019C196.907 8.09499 197.894 8.30506 198.849 8.62656C199.806 8.93864 200.726 9.36258 201.591 9.89029ZM200.227 41.8864C199.697 42.8388 198.939 43.6314 198.027 44.1868C197.255 44.6549 196.39 44.9296 195.499 44.989C194.604 45.0484 193.71 44.8668 192.901 44.4615C192.323 44.1645 191.801 43.7598 191.362 43.2674L200.227 41.8864ZM201.071 36.718V37.3224V37.5311C201.097 37.9275 201.097 38.3253 201.071 38.7216L200.895 39.5934L190.152 41.2564L189.966 40.8095L189.548 39.022V38.5018L201.043 36.718H201.071ZM194.743 1.36654C194.754 0.996035 194.904 0.644673 195.161 0.388829C195.418 0.132984 195.762 -0.0066624 196.118 0.000244537H196.209C196.54 0.0309253 196.849 0.185854 197.078 0.436139C197.32 0.701879 197.453 1.05513 197.45 1.42148C197.452 1.44586 197.452 1.47036 197.45 1.49474L197.376 4.49472C197.378 4.52644 197.378 4.55824 197.376 4.58996C197.35 4.94457 197.196 5.27548 196.943 5.51512C196.691 5.75475 196.361 5.88502 196.019 5.87933H195.925C195.595 5.85377 195.287 5.70093 195.06 5.45076C194.816 5.18453 194.683 4.82951 194.687 4.46175C194.685 4.43737 194.685 4.41288 194.687 4.38849L194.757 1.37753L194.743 1.36654ZM179.923 6.63024C179.663 6.37488 179.509 6.02399 179.494 5.65222C179.486 5.46706 179.513 5.28207 179.574 5.10796C179.635 4.93384 179.729 4.77405 179.85 4.63781C179.97 4.50158 180.115 4.39159 180.277 4.31422C180.439 4.23685 180.613 4.19362 180.791 4.18703C181.147 4.1714 181.495 4.30307 181.758 4.55333L183.916 6.65222C184.178 6.90603 184.332 7.25715 184.346 7.62904C184.36 8.00093 184.232 8.36344 183.99 8.63755C183.744 8.90875 183.406 9.06909 183.048 9.08444C182.693 9.09989 182.347 8.96818 182.085 8.71814L179.923 6.63024ZM176.408 22.0953C176.229 22.1022 176.052 22.0724 175.885 22.0076C175.717 21.9428 175.564 21.8443 175.434 21.7178C175.303 21.5912 175.198 21.4391 175.123 21.27C175.049 21.101 175.008 20.9184 175.002 20.7327C174.993 20.5489 175.02 20.3651 175.08 20.1922C175.14 20.0192 175.233 19.8605 175.353 19.7254C175.474 19.5908 175.62 19.4827 175.782 19.4072C175.944 19.3318 176.118 19.2905 176.295 19.2858L179.241 19.1833C179.419 19.1749 179.597 19.2036 179.765 19.2676C179.932 19.3316 180.086 19.4297 180.217 19.5562C180.348 19.6826 180.453 19.8349 180.527 20.0042C180.601 20.1735 180.642 20.3564 180.647 20.5422V20.5642V20.6155C180.643 20.9612 180.518 21.2935 180.296 21.5496C180.172 21.6839 180.023 21.791 179.859 21.8646C179.695 21.9382 179.518 21.9768 179.339 21.9781H179.287L176.376 22.0807L176.408 22.0953ZM213.529 17.7401H213.575C213.912 17.7188 214.244 17.8299 214.506 18.0514C214.783 18.2888 214.959 18.6291 214.999 19.0001C214.999 19.0001 214.999 19.0368 214.999 19.0441C215.015 19.403 214.898 19.7549 214.674 20.0273C214.449 20.2998 214.132 20.4722 213.789 20.5093L210.858 20.8792C210.502 20.9171 210.146 20.8066 209.869 20.5717C209.592 20.3369 209.415 19.9969 209.378 19.6265C209.341 19.2554 209.448 18.8844 209.674 18.5952C209.9 18.306 210.227 18.1223 210.583 18.0844C211.561 17.9745 212.545 17.8573 213.526 17.7584L213.529 17.7401ZM207.722 5.51303C207.82 5.3594 207.946 5.22747 208.093 5.12487C208.24 5.02227 208.405 4.95104 208.578 4.91528C208.752 4.87951 208.93 4.87994 209.104 4.91652C209.277 4.9531 209.442 5.02512 209.588 5.12842C209.735 5.23078 209.861 5.36253 209.958 5.51598C210.055 5.66944 210.122 5.84152 210.154 6.02218C210.223 6.3876 210.151 6.7664 209.954 7.07712L208.312 9.64121C208.111 9.95014 207.8 10.1631 207.448 10.2331C207.096 10.3032 206.732 10.2247 206.435 10.0148C206.139 9.80499 205.934 9.48102 205.867 9.1142C205.8 8.74737 205.875 8.36773 206.077 8.0588L207.722 5.49471V5.51303ZM196.536 20.1137H198.607C198.678 20.1137 198.748 20.1283 198.814 20.1566C198.88 20.185 198.939 20.2265 198.99 20.2789C199.04 20.3313 199.08 20.3935 199.107 20.4619C199.134 20.5303 199.148 20.6037 199.148 20.6778C199.148 20.7898 199.116 20.8994 199.057 20.9928L194.135 29.7583C194.099 29.8218 194.051 29.8771 193.993 29.9211C193.936 29.9651 193.871 29.9969 193.803 30.0146C193.734 30.0323 193.662 30.0356 193.592 30.0243C193.522 30.013 193.454 29.9873 193.394 29.9488C193.298 29.8885 193.222 29.7988 193.176 29.6919C193.131 29.5851 193.119 29.4663 193.14 29.3517L193.868 23.9745L191.407 24.0184C191.336 24.0199 191.266 24.0067 191.2 23.9796C191.134 23.9526 191.074 23.9122 191.023 23.8608C190.972 23.8094 190.931 23.7479 190.903 23.6801C190.875 23.6122 190.86 23.5392 190.859 23.4653C190.856 23.3611 190.882 23.2581 190.933 23.1686L195.78 14.4067C195.854 14.2788 195.974 14.1862 196.112 14.1492C196.251 14.1122 196.398 14.1337 196.522 14.2089C196.617 14.2629 196.695 14.3457 196.744 14.4465C196.793 14.5472 196.811 14.6611 196.796 14.773L196.55 20.1137H196.536Z" fill="#FFA500"/>
</svg>
