<svg width="263" height="72" viewBox="0 0 263 72" fill="none" xmlns="http://www.w3.org/2000/svg">
<path d="M24.912 19.304V25.88H11.184V32.984H21.456V39.368H11.184V53H2.976V19.304H24.912ZM41.418 53.384C38.794 53.384 36.426 52.824 34.314 51.704C32.234 50.584 30.586 48.984 29.37 46.904C28.186 44.824 27.594 42.392 27.594 39.608C27.594 36.856 28.202 34.44 29.418 32.36C30.634 30.248 32.298 28.632 34.41 27.512C36.522 26.392 38.89 25.832 41.514 25.832C44.138 25.832 46.506 26.392 48.618 27.512C50.73 28.632 52.394 30.248 53.61 32.36C54.826 34.44 55.434 36.856 55.434 39.608C55.434 42.36 54.81 44.792 53.562 46.904C52.346 48.984 50.666 50.584 48.522 51.704C46.41 52.824 44.042 53.384 41.418 53.384ZM41.418 46.28C42.986 46.28 44.314 45.704 45.402 44.552C46.522 43.4 47.082 41.752 47.082 39.608C47.082 37.464 46.538 35.816 45.45 34.664C44.394 33.512 43.082 32.936 41.514 32.936C39.914 32.936 38.586 33.512 37.53 34.664C36.474 35.784 35.946 37.432 35.946 39.608C35.946 41.752 36.458 43.4 37.482 44.552C38.538 45.704 39.85 46.28 41.418 46.28ZM67.9965 30.68C68.9565 29.208 70.1565 28.056 71.5965 27.224C73.0365 26.36 74.6365 25.928 76.3965 25.928V34.616H74.1405C72.0925 34.616 70.5565 35.064 69.5325 35.96C68.5085 36.824 67.9965 38.36 67.9965 40.568V53H59.7885V26.216H67.9965V30.68ZM95.2478 46.04V53H91.0718C88.0958 53 85.7758 52.28 84.1118 50.84C82.4478 49.368 81.6158 46.984 81.6158 43.688V33.032H78.3518V26.216H81.6158V19.688H89.8238V26.216H95.1998V33.032H89.8238V43.784C89.8238 44.584 90.0158 45.16 90.3998 45.512C90.7838 45.864 91.4238 46.04 92.3198 46.04H95.2478ZM108.028 30.68C108.988 29.208 110.188 28.056 111.628 27.224C113.068 26.36 114.668 25.928 116.428 25.928V34.616H114.172C112.124 34.616 110.588 35.064 109.564 35.96C108.54 36.824 108.028 38.36 108.028 40.568V53H99.8198V26.216H108.028V30.68ZM145.599 39.176C145.599 39.944 145.551 40.744 145.455 41.576H126.879C127.007 43.24 127.535 44.52 128.463 45.416C129.423 46.28 130.591 46.712 131.967 46.712C134.015 46.712 135.439 45.848 136.239 44.12H144.975C144.527 45.88 143.711 47.464 142.527 48.872C141.375 50.28 139.919 51.384 138.159 52.184C136.399 52.984 134.431 53.384 132.255 53.384C129.631 53.384 127.295 52.824 125.247 51.704C123.199 50.584 121.599 48.984 120.447 46.904C119.295 44.824 118.719 42.392 118.719 39.608C118.719 36.824 119.279 34.392 120.399 32.312C121.551 30.232 123.151 28.632 125.199 27.512C127.247 26.392 129.599 25.832 132.255 25.832C134.847 25.832 137.151 26.376 139.167 27.464C141.183 28.552 142.751 30.104 143.871 32.12C145.023 34.136 145.599 36.488 145.599 39.176ZM137.199 37.016C137.199 35.608 136.719 34.488 135.759 33.656C134.799 32.824 133.599 32.408 132.159 32.408C130.783 32.408 129.615 32.808 128.655 33.608C127.727 34.408 127.151 35.544 126.927 37.016H137.199ZM160.825 53.384C158.489 53.384 156.409 52.984 154.585 52.184C152.761 51.384 151.321 50.296 150.265 48.92C149.209 47.512 148.617 45.944 148.489 44.216H156.601C156.697 45.144 157.129 45.896 157.897 46.472C158.665 47.048 159.609 47.336 160.729 47.336C161.753 47.336 162.537 47.144 163.081 46.76C163.657 46.344 163.945 45.816 163.945 45.176C163.945 44.408 163.545 43.848 162.745 43.496C161.945 43.112 160.649 42.696 158.857 42.248C156.937 41.8 155.337 41.336 154.057 40.856C152.777 40.344 151.673 39.56 150.745 38.504C149.817 37.416 149.353 35.96 149.353 34.136C149.353 32.6 149.769 31.208 150.601 29.96C151.465 28.68 152.713 27.672 154.345 26.936C156.009 26.2 157.977 25.832 160.249 25.832C163.609 25.832 166.249 26.664 168.169 28.328C170.121 29.992 171.241 32.2 171.529 34.952H163.945C163.817 34.024 163.401 33.288 162.697 32.744C162.025 32.2 161.129 31.928 160.009 31.928C159.049 31.928 158.313 32.12 157.801 32.504C157.289 32.856 157.033 33.352 157.033 33.992C157.033 34.76 157.433 35.336 158.233 35.72C159.065 36.104 160.345 36.488 162.073 36.872C164.057 37.384 165.673 37.896 166.921 38.408C168.169 38.888 169.257 39.688 170.185 40.808C171.145 41.896 171.641 43.368 171.673 45.224C171.673 46.792 171.225 48.2 170.329 49.448C169.465 50.664 168.201 51.624 166.537 52.328C164.905 53.032 163.001 53.384 160.825 53.384ZM187.591 53.384C185.255 53.384 183.175 52.984 181.351 52.184C179.527 51.384 178.087 50.296 177.031 48.92C175.975 47.512 175.383 45.944 175.255 44.216H183.367C183.463 45.144 183.895 45.896 184.663 46.472C185.431 47.048 186.375 47.336 187.495 47.336C188.519 47.336 189.303 47.144 189.847 46.76C190.423 46.344 190.711 45.816 190.711 45.176C190.711 44.408 190.311 43.848 189.511 43.496C188.711 43.112 187.415 42.696 185.623 42.248C183.703 41.8 182.103 41.336 180.823 40.856C179.543 40.344 178.439 39.56 177.511 38.504C176.583 37.416 176.119 35.96 176.119 34.136C176.119 32.6 176.535 31.208 177.367 29.96C178.231 28.68 179.479 27.672 181.111 26.936C182.775 26.2 184.743 25.832 187.015 25.832C190.375 25.832 193.015 26.664 194.935 28.328C196.887 29.992 198.007 32.2 198.295 34.952H190.711C190.583 34.024 190.167 33.288 189.463 32.744C188.791 32.2 187.895 31.928 186.775 31.928C185.815 31.928 185.079 32.12 184.567 32.504C184.055 32.856 183.799 33.352 183.799 33.992C183.799 34.76 184.199 35.336 184.999 35.72C185.831 36.104 187.111 36.488 188.839 36.872C190.823 37.384 192.439 37.896 193.687 38.408C194.935 38.888 196.023 39.688 196.951 40.808C197.911 41.896 198.407 43.368 198.439 45.224C198.439 46.792 197.991 48.2 197.095 49.448C196.231 50.664 194.967 51.624 193.303 52.328C191.671 53.032 189.767 53.384 187.591 53.384Z" fill="black"/>
<path d="M238 65C251.807 65 263 53.8071 263 40C263 26.1929 251.807 15 238 15C224.193 15 213 26.1929 213 40C213 53.8071 224.193 65 238 65Z" fill="#3F3D56"/>
<path d="M229.127 58.2643C236.46 58.2643 242.404 50.0872 242.404 40.0001C242.404 29.913 236.46 21.7358 229.127 21.7358C221.794 21.7358 215.85 29.913 215.85 40.0001C215.85 50.0872 221.794 58.2643 229.127 58.2643Z" fill="white"/>
<path d="M224.726 49.6983C226.772 49.6983 228.431 47.0886 228.431 43.8693C228.431 40.65 226.772 38.0403 224.726 38.0403C222.679 38.0403 221.02 40.65 221.02 43.8693C221.02 47.0886 222.679 49.6983 224.726 49.6983Z" fill="#3F3D56"/>
</svg>
