<svg width="76" height="78" viewBox="0 0 76 78" fill="none" xmlns="http://www.w3.org/2000/svg">
<g clip-path="url(#clip0_5_57)">
<path fill-rule="evenodd" clip-rule="evenodd" d="M50.5197 17.1386C52.6666 18.3385 54.6006 19.8531 56.2503 21.6264C57.8768 23.3671 59.182 25.3565 60.1107 27.5107C60.6315 28.7307 61.0448 29.9898 61.3463 31.2748C62.0291 34.1966 62.0836 37.2193 61.5066 40.1616C61.1886 41.7478 60.7054 43.3 60.064 44.7953L59.9905 44.954C58.6547 48.1279 56.2636 51.2001 53.9794 54.2343C52.8173 55.7704 51.6618 57.2875 50.6934 58.7602C50.3886 59.2183 49.9585 59.5891 49.4491 59.8329C48.9397 60.0766 48.3701 60.1841 47.8014 60.144L29.4209 62.7402C28.6628 62.845 27.8907 62.6828 27.2497 62.2841C26.6088 61.8854 26.1434 61.2778 25.9411 60.5756C25.4841 59.3068 24.919 58.0755 24.2513 56.894C23.6969 55.8781 23.0248 54.9243 22.2476 54.0502C21.2992 53.0219 20.3308 51.9682 19.369 50.7812C18.2961 49.4079 17.3698 47.9364 16.6039 46.3886C15.7985 44.7615 15.1718 43.0598 14.7338 41.3105C14.2991 39.5593 14.0861 37.765 14.0993 35.9658C14.1186 34.0951 14.3811 32.2338 14.8807 30.4243C15.4143 28.4821 16.1784 26.6038 17.1583 24.8256L17.2919 24.5971C18.5548 22.5349 20.1582 20.6789 22.0406 19.1C23.9102 17.5471 26.0387 16.3007 28.3389 15.412L28.5326 15.3422C30.2513 14.693 32.0448 14.2392 33.8757 13.9902C35.8119 13.7318 37.7732 13.6892 39.7198 13.8632C41.6198 14.0275 43.4947 14.3915 45.3101 14.9487C47.1281 15.4895 48.8757 16.2241 50.5197 17.1386ZM47.9283 72.5854C46.9212 74.2357 45.4805 75.6093 43.7473 76.5717C42.2817 77.383 40.6376 77.859 38.9451 77.9619C37.2445 78.0649 35.5447 77.7501 34.0093 77.0478C32.9097 76.5331 31.9183 75.8318 31.0839 74.9785L47.9283 72.5854ZM49.5312 63.6288V64.6762V65.038C49.5813 65.7249 49.5813 66.4142 49.5312 67.101L49.1973 68.6118L28.7864 71.4936L28.4324 70.7192L27.6376 67.6215V66.7202L49.4778 63.6288H49.5312ZM37.5091 2.36761C37.5283 1.72556 37.8135 1.11668 38.3025 0.673321C38.7915 0.229963 39.4449 -0.0120337 40.1206 -6.45172e-05H40.2942C40.9224 0.0531028 41.5087 0.321581 41.9439 0.755307C42.4038 1.21581 42.6576 1.82798 42.6519 2.46283C42.6554 2.50508 42.6554 2.54753 42.6519 2.58978L42.5116 7.78851C42.5149 7.84348 42.5149 7.89858 42.5116 7.95355C42.4624 8.56806 42.1681 9.14151 41.689 9.55677C41.2098 9.97204 40.5819 10.1978 39.9336 10.1879H39.7532C39.1273 10.1436 38.5413 9.87878 38.1102 9.44525C37.6475 8.9839 37.3934 8.36867 37.4022 7.73138C37.3987 7.68913 37.3987 7.64668 37.4022 7.60443L37.5358 2.38665L37.5091 2.36761ZM9.35056 11.4892C8.85706 11.0467 8.56472 10.4386 8.53572 9.79437C8.52051 9.47349 8.57235 9.15293 8.68825 8.8512C8.80415 8.54948 8.98181 8.27257 9.21097 8.03648C9.44013 7.80039 9.71625 7.6098 10.0234 7.47572C10.3305 7.34163 10.6625 7.26672 11.0003 7.25531C11.6767 7.22821 12.3369 7.45639 12.837 7.89007L16.9379 11.5273C17.4342 11.9671 17.7274 12.5756 17.7537 13.22C17.78 13.8645 17.5371 14.4927 17.0781 14.9677C16.6105 15.4377 15.9682 15.7155 15.2882 15.7421C14.6138 15.7689 13.9558 15.5407 13.4581 15.1074L9.35056 11.4892ZM2.67159 38.289C2.33297 38.3009 1.99522 38.2492 1.67763 38.1369C1.36005 38.0247 1.06887 37.854 0.820742 37.6347C0.572616 37.4154 0.372413 37.1517 0.231583 36.8588C0.0907526 36.5659 0.0120579 36.2495 -1.01446e-06 35.9277C-0.0163269 35.6091 0.0343307 35.2907 0.14901 34.991C0.263689 34.6912 0.440089 34.4162 0.667896 34.1821C0.898406 33.9489 1.17531 33.7615 1.48256 33.6307C1.78982 33.5 2.12132 33.4285 2.45786 33.4203L8.05484 33.2426C8.39355 33.2282 8.73191 33.2778 9.05024 33.3888C9.36856 33.4997 9.66051 33.6697 9.9091 33.8888C10.1577 34.108 10.358 34.3719 10.4983 34.6652C10.6386 34.9586 10.7161 35.2755 10.7264 35.5976V35.6357V35.7245C10.7195 36.3235 10.4819 36.8994 10.0585 37.3432C9.82319 37.5759 9.54121 37.7616 9.22921 37.8891C8.9172 38.0167 8.58148 38.0836 8.24185 38.0859H8.14166L2.61148 38.2636L2.67159 38.289ZM73.2015 30.7416H73.2883C73.9285 30.7048 74.56 30.8973 75.0583 31.2812C75.5834 31.6925 75.9189 32.2824 75.9933 32.9252C75.9933 32.9252 75.9933 32.9887 75.9933 33.0014C76.0241 33.6235 75.8032 34.2331 75.376 34.7053C74.9487 35.1774 74.3475 35.4763 73.6958 35.5405L68.1255 36.1816C67.4499 36.2473 66.7744 36.0556 66.2473 35.6487C65.7202 35.2417 65.3844 34.6526 65.3136 34.0107C65.2446 33.3676 65.4471 32.7248 65.8768 32.2236C66.3064 31.7224 66.9279 31.404 67.6045 31.3383C69.4613 31.1479 71.3314 30.9448 73.1948 30.7734L73.2015 30.7416ZM62.1679 9.55316C62.3536 9.28692 62.5931 9.0583 62.8723 8.88051C63.1516 8.70272 63.4652 8.57927 63.7949 8.5173C64.1247 8.45533 64.4641 8.45606 64.7935 8.51946C65.123 8.58285 65.436 8.70765 65.7144 8.88665C65.9928 9.06404 66.2313 9.29236 66.416 9.55828C66.6006 9.8242 66.7276 10.1224 66.7897 10.4355C66.9196 11.0687 66.7829 11.7251 66.409 12.2636L63.2899 16.707C62.9073 17.2423 62.3166 17.6113 61.6477 17.7327C60.9789 17.8541 60.2866 17.7181 59.7233 17.3544C59.1601 16.9908 58.7718 16.4294 58.6441 15.7937C58.5163 15.158 58.6595 14.5001 59.0421 13.9648L62.1679 9.52142V9.55316ZM40.9154 34.8549H44.8493C44.9844 34.8549 45.1181 34.8802 45.2429 34.9293C45.3677 34.9785 45.4811 35.0505 45.5766 35.1412C45.6721 35.232 45.7479 35.3398 45.7996 35.4584C45.8512 35.577 45.8778 35.7041 45.8778 35.8325C45.8775 36.0267 45.8172 36.2165 45.7042 36.3784L36.3536 51.5683C36.2843 51.6783 36.1928 51.7742 36.0842 51.8505C35.9757 51.9267 35.8524 51.9817 35.7214 52.0124C35.5903 52.0431 35.4542 52.0488 35.3209 52.0293C35.1875 52.0097 35.0595 51.9652 34.9444 51.8984C34.762 51.7939 34.6179 51.6384 34.5318 51.4533C34.4458 51.2681 34.4219 51.0622 34.4635 50.8637L35.846 41.5453L31.1707 41.6215C31.036 41.624 30.902 41.6012 30.7766 41.5543C30.6512 41.5074 30.5368 41.4374 30.4399 41.3483C30.3431 41.2593 30.2657 41.1528 30.2123 41.0352C30.1589 40.9176 30.1306 40.7911 30.1288 40.663C30.1229 40.4824 30.1716 40.304 30.2691 40.1489L39.4794 24.9653C39.6197 24.7435 39.8462 24.5831 40.11 24.519C40.3738 24.4548 40.6535 24.492 40.8887 24.6225C41.0696 24.716 41.2163 24.8596 41.3093 25.0342C41.4024 25.2087 41.4373 25.4061 41.4096 25.6L40.9421 34.8549H40.9154Z" fill="#FFA500"/>
</g>
<defs>
<clipPath id="clip0_5_57">
<rect width="76" height="78" fill="white"/>
</clipPath>
</defs>
</svg>
