<svg width="317" height="316" viewBox="0 0 317 316" fill="none" xmlns="http://www.w3.org/2000/svg">
<path d="M158.007 315.826C245.272 315.826 316.014 245.126 316.014 157.913C316.014 70.7002 245.272 0 158.007 0C70.7422 0 0 70.7002 0 157.913C0 245.126 70.7422 315.826 158.007 315.826Z" fill="#3F3D56"/>
<path d="M101.927 273.28C148.272 273.28 185.842 221.629 185.842 157.913C185.842 94.198 148.272 42.5466 101.927 42.5466C55.5814 42.5466 18.0111 94.198 18.0111 157.913C18.0111 221.629 55.5814 273.28 101.927 273.28Z" fill="white"/>
<path d="M74.1095 219.173C87.0439 219.173 97.5293 202.689 97.5293 182.354C97.5293 162.019 87.0439 145.535 74.1095 145.535C61.1751 145.535 50.6898 162.019 50.6898 182.354C50.6898 202.689 61.1751 219.173 74.1095 219.173Z" fill="#3F3D56"/>
</svg>
