<svg width="80" height="80" viewBox="0 0 80 80" fill="none" xmlns="http://www.w3.org/2000/svg">
<path fill-rule="evenodd" clip-rule="evenodd" d="M38.8997 19.6179H41.0938C51.875 19.6179 60.7031 30.3495 60.7031 43.4729V67.6844H67.2982V80.0079H12.7018V67.6765H19.2969V43.465C19.2904 30.3495 28.1185 19.6179 38.8997 19.6179ZM28.724 59.5981H24.7331V53.2779C24.7331 51.5117 24.7331 51.3216 24.7266 51.1157C24.668 44.3679 24.6159 38.618 29.2643 32.7334C30.5859 31.0623 32.1224 29.7396 33.8411 28.7179C29.8698 38.3328 28.5482 48.5813 28.724 59.5981ZM7.55859 43.9956C8.75651 43.9956 9.72005 45.1757 9.72005 46.6251C9.72005 48.0744 8.75 49.2545 7.55859 49.2545H2.16146C0.970052 49.2545 0 48.0824 0 46.6251C0 45.1678 0.970052 43.9956 2.16146 43.9956H7.55859ZM12.7539 25.6371C13.7826 26.3578 14.1406 27.9576 13.5482 29.2169C12.9557 30.4683 11.6406 30.9039 10.6055 30.1831L5.9375 26.9043C4.90885 26.1835 4.55078 24.5837 5.14323 23.3244C5.73568 22.0731 7.05078 21.6375 8.08594 22.3582L12.7539 25.6371ZM24.8112 12.8938C25.4102 14.1451 25.0586 15.7529 24.0234 16.4815C22.9948 17.2102 21.6732 16.7825 21.0742 15.5232L18.3789 9.84457C17.7799 8.59321 18.1315 6.98545 19.1667 6.25681C20.1953 5.52817 21.5169 5.95585 22.1159 7.21513L24.8112 12.8938ZM72.4414 49.2545C71.2435 49.2545 70.28 48.0744 70.28 46.6251C70.28 45.1757 71.25 43.9956 72.4414 43.9956H77.832C79.03 43.9956 79.9935 45.1757 79.9935 46.6251C79.9935 48.0744 79.0234 49.2545 77.832 49.2545H72.4414ZM69.3945 30.1831C68.3659 30.9039 67.0443 30.4683 66.4518 29.2169C65.8594 27.9655 66.2175 26.3578 67.2461 25.6371L71.9141 22.3582C72.9427 21.6375 74.2643 22.0731 74.8568 23.3244C75.4492 24.5758 75.0912 26.1835 74.0625 26.9043L69.3945 30.1831ZM58.9258 15.5232C58.3268 16.7746 57.0052 17.2102 55.9766 16.4815C54.9479 15.7529 54.5898 14.1451 55.1888 12.8938L57.8841 7.21513C58.4831 5.96377 59.8047 5.52817 60.8333 6.25681C61.862 6.98545 62.2201 8.59321 61.6211 9.84457L58.9258 15.5232ZM43.8346 9.19513C43.8346 10.6524 42.8646 11.8246 41.6732 11.8246C40.4753 11.8246 39.5117 10.6445 39.5117 9.19513V2.62944C39.5117 1.17216 40.4818 0 41.6732 0C42.8711 0 43.8346 1.18008 43.8346 2.62944V9.19513Z" fill="#CF1259"/>
</svg>
